<svg width="16" height="16" viewBox="0 0 16 16" fill="none" xmlns="http://www.w3.org/2000/svg">
<g clip-path="url(#clip0_240_3)">
<rect y="7.69995" width="14.3" height="5.5" rx="1.1" transform="rotate(-30 0 7.69995)" fill="#8DA5F3"/>
<path d="M13.4841 2.4552L14.4368 1.9052L15.5368 3.81046L14.5841 4.36046L13.4841 2.4552Z" fill="#8DA5F3"/>
<path d="M4.65527 11.363L7.51316 9.71304L9.16316 12.5709C9.46691 13.097 9.28665 13.7698 8.76053 14.0735L7.8079 14.6235C7.28178 14.9273 6.60903 14.747 6.30527 14.2209L4.65527 11.363Z" fill="#8DA5F3"/>
<path d="M9.41821 8.61304L10.3708 8.06304L10.9208 9.01567C11.2246 9.54179 11.0443 10.2145 10.5182 10.5183V10.5183L9.41821 8.61304Z" fill="#8DA5F3"/>
<rect x="8.06299" y="10.6656" width="2.2" height="1.1" transform="rotate(-30 8.06299 10.6656)" fill="#8DA5F3"/>
</g>
<defs>
<clipPath id="clip0_240_3">
<rect width="16" height="16" fill="white"/>
</clipPath>
</defs>
</svg>
