<svg width="16" height="16" viewBox="0 0 16 16" fill="none" xmlns="http://www.w3.org/2000/svg">
<g clip-path="url(#clip0_242_23)">
<path fill-rule="evenodd" clip-rule="evenodd" d="M0.90918 5.72729V14L3.86372 11.6364L5.63645 14L8.00009 11.6364L10.3637 14L12.1365 11.6364L15.091 14V5.72728C15.091 4.42188 14.0328 3.36365 12.7274 3.36365H3.27282C1.96742 3.36365 0.90918 4.42189 0.90918 5.72729ZM5.63636 8.09091C5.63636 8.74361 5.10725 9.27273 4.45455 9.27273C3.80185 9.27273 3.27273 8.74361 3.27273 8.09091C3.27273 7.43821 3.80185 6.90909 4.45455 6.90909C5.10725 6.90909 5.63636 7.43821 5.63636 8.09091ZM11.5455 9.27273C12.1982 9.27273 12.7273 8.74361 12.7273 8.09091C12.7273 7.43821 12.1982 6.90909 11.5455 6.90909C10.8928 6.90909 10.3636 7.43821 10.3636 8.09091C10.3636 8.74361 10.8928 9.27273 11.5455 9.27273Z" fill="#8DA5F3"/>
<path d="M16 1L15.0909 5.72727L11.5454 3.36364L16 1Z" fill="#8DA5F3"/>
<path d="M0 1L0.909135 5.72727L4.45459 3.36364L0 1Z" fill="#8DA5F3"/>
</g>
<defs>
<clipPath id="clip0_242_23">
<rect width="16" height="16" fill="white"/>
</clipPath>
</defs>
</svg>
