<svg width="48" height="48" viewBox="0 0 48 48" fill="none" xmlns="http://www.w3.org/2000/svg">
<g clip-path="url(#clip0_34_44)">
<path d="M5.64651 33.6072C4.22821 32.1889 4.22821 29.8894 5.64651 28.4711L25.9851 8.1325C28.2903 5.82732 31.2837 4.33587 34.5122 3.88393L40.5646 3.03671C41.8804 2.85252 43.0068 3.97885 42.8226 5.29466L41.9754 11.3471C41.5234 14.5756 40.032 17.569 37.7268 19.8742L17.3882 40.2128C15.9699 41.6311 13.6704 41.6311 12.2521 40.2128L5.64651 33.6072Z" fill="#8DA5F3"/>
<path d="M4.8365 26.5716L15.7313 15.6768L14.8826 14.8281C14.2249 14.1704 13.2246 13.9971 12.384 14.3953L1.82269 19.398C0.447093 20.0496 0.132241 21.8673 1.20854 22.9436L4.8365 26.5716Z" fill="#8DA5F3"/>
<path d="M19.2877 41.0228L30.1825 30.128L31.0312 30.9767C31.6889 31.6344 31.8622 32.6347 31.464 33.4753L26.4613 44.0366C25.8097 45.4122 23.992 45.7271 22.9157 44.6508L19.2877 41.0228Z" fill="#8DA5F3"/>
</g>
<defs>
<clipPath id="clip0_34_44">
<rect width="48" height="48" fill="white"/>
</clipPath>
</defs>
</svg>
